<svg width="80" height="81" viewBox="0 0 80 81" fill="none" xmlns="http://www.w3.org/2000/svg">
<path d="M63.3333 80.015H16.6667C7.47667 80.015 0 72.5383 0 63.3483V32.4283C0 26.8783 2.74667 21.7117 7.34667 18.6117L30.6767 2.865C36.34 -0.955 43.66 -0.955 49.3233 2.865L72.6567 18.6117C77.2533 21.7117 80 26.875 80 32.4283V63.3483C80 72.5383 72.5233 80.015 63.3333 80.015ZM40 6.67167C38.0533 6.67167 36.1067 7.245 34.4067 8.395L11.0733 24.1383C8.31333 25.9983 6.66667 29.095 6.66667 32.425V63.345C6.66667 68.8583 11.1533 73.345 16.6667 73.345H63.3333C68.8467 73.345 73.3333 68.8583 73.3333 63.345V32.4283C73.3333 29.0983 71.6867 25.9983 68.93 24.1417L45.5933 8.395C43.8933 7.245 41.9467 6.67167 40 6.67167Z" fill="#B1F35D"/>
</svg>
