<svg width="306" height="88" viewBox="0 0 306 88" fill="none" xmlns="http://www.w3.org/2000/svg">
<g clip-path="url(#clip0_5_6)">
<path d="M63.3333 84H16.6667C7.47667 84 0 76.5233 0 67.3333V36.4133C0 30.8633 2.74667 25.6967 7.34667 22.5967L30.6767 6.85C36.34 3.03 43.66 3.03 49.3233 6.85L72.6567 22.5967C77.2533 25.6967 80 30.86 80 36.4133V67.3333C80 76.5233 72.5233 84 63.3333 84ZM40 10.6567C38.0533 10.6567 36.1067 11.23 34.4067 12.38L11.0733 28.1233C8.31333 29.9833 6.66667 33.08 6.66667 36.41V67.33C6.66667 72.8433 11.1533 77.33 16.6667 77.33H63.3333C68.8467 77.33 73.3333 72.8433 73.3333 67.33V36.4133C73.3333 33.0833 71.6867 29.9833 68.93 28.1267L45.5933 12.38C43.8933 11.23 41.9467 10.6567 40 10.6567Z" fill="white"/>
</g>
<path d="M137.6 53.95C138.033 53.95 138.367 54.1667 138.6 54.6C138.867 55 139 55.5167 139 56.15C139 56.9167 138.883 57.5167 138.65 57.95C138.417 58.3833 138.05 58.7667 137.55 59.1C135.583 60.4 132.45 62.5333 128.15 65.5C126.85 72.4 125.167 77.8333 123.1 81.8C121.033 85.7667 118.417 87.75 115.25 87.75C113.55 87.75 112.167 87.2167 111.1 86.15C110.033 85.1167 109.5 83.75 109.5 82.05C109.5 80.4833 109.85 78.9 110.55 77.3C111.25 75.7 112.55 73.85 114.45 71.75C116.383 69.65 119.1 67.25 122.6 64.55L122.75 63.6C120.117 64.7 117.533 65.25 115 65.25C111.267 65.25 107.983 64.5333 105.15 63.1C102.317 61.6333 100.117 59.5667 98.55 56.9C96.9833 54.2333 96.2 51.1333 96.2 47.6C96.2 42.6667 97.1333 38.3167 99 34.55C100.867 30.75 103.433 27.8167 106.7 25.75C110 23.65 113.683 22.6 117.75 22.6C121.65 22.6 124.567 23.5167 126.5 25.35C128.467 27.15 129.45 29.55 129.45 32.55C129.45 34.5167 129.083 36.1 128.35 37.3C127.65 38.4667 126.633 39.05 125.3 39.05C124.4 39.05 123.667 38.8333 123.1 38.4C122.567 37.9667 122.3 37.3667 122.3 36.6C122.3 36.2667 122.367 35.7 122.5 34.9C122.7 33.9667 122.8 33.2333 122.8 32.7C122.8 31.3 122.367 30.2167 121.5 29.45C120.667 28.6833 119.25 28.3 117.25 28.3C114.817 28.3 112.55 29 110.45 30.4C108.383 31.8 106.717 33.9 105.45 36.7C104.183 39.4667 103.55 42.8 103.55 46.7C103.55 50.7 104.633 53.8 106.8 56C109 58.1667 112.167 59.25 116.3 59.25C118.6 59.25 121 58.7333 123.5 57.7L124.2 51.6H119.1C118.167 51.6 117.45 51.3833 116.95 50.95C116.45 50.4833 116.2 49.7333 116.2 48.7C116.2 47.7667 116.45 47.0333 116.95 46.5C117.45 45.9667 118.117 45.7 118.95 45.7H128.3C129.033 45.7 129.633 45.95 130.1 46.45C130.6 46.9167 130.8 47.6 130.7 48.5C130.6 49.5667 130.267 51.9833 129.7 55.75L129.15 59.55C131.817 57.55 134.25 55.8167 136.45 54.35C136.883 54.0833 137.267 53.95 137.6 53.95ZM115.8 82.9C116.667 82.9 117.617 81.9167 118.65 79.95C119.683 77.9833 120.65 74.8167 121.55 70.45C119.017 72.6167 117.183 74.5667 116.05 76.3C114.95 78.0667 114.4 79.6167 114.4 80.95C114.4 82.25 114.867 82.9 115.8 82.9ZM158.227 53.85C158.661 53.85 158.994 54.05 159.227 54.45C159.494 54.85 159.627 55.4 159.627 56.1C159.627 57.4333 159.311 58.4667 158.677 59.2C157.444 60.7 155.694 62.0833 153.427 63.35C151.194 64.6167 148.794 65.25 146.227 65.25C142.727 65.25 140.011 64.3 138.077 62.4C136.144 60.5 135.177 57.9 135.177 54.6C135.177 52.3 135.661 50.1667 136.627 48.2C137.594 46.2 138.927 44.6167 140.627 43.45C142.361 42.2833 144.311 41.7 146.477 41.7C148.411 41.7 149.961 42.2833 151.127 43.45C152.294 44.5833 152.877 46.1333 152.877 48.1C152.877 50.4 152.044 52.3833 150.377 54.05C148.744 55.6833 145.961 56.9833 142.027 57.95C142.861 59.4833 144.444 60.25 146.777 60.25C148.277 60.25 149.977 59.7333 151.877 58.7C153.811 57.6333 155.477 56.25 156.877 54.55C157.277 54.0833 157.727 53.85 158.227 53.85ZM145.627 46.6C144.394 46.6 143.344 47.3167 142.477 48.75C141.644 50.1833 141.227 51.9167 141.227 53.95V54.05C143.194 53.5833 144.744 52.8833 145.877 51.95C147.011 51.0167 147.577 49.9333 147.577 48.7C147.577 48.0667 147.394 47.5667 147.027 47.2C146.694 46.8 146.227 46.6 145.627 46.6ZM177.856 53.85C178.29 53.85 178.623 54.05 178.856 54.45C179.123 54.85 179.256 55.4 179.256 56.1C179.256 57.4333 178.94 58.4667 178.306 59.2C176.873 60.9667 175.306 62.4167 173.606 63.55C171.906 64.6833 169.956 65.25 167.756 65.25C160.956 65.25 157.556 60.4667 157.556 50.9C157.556 49.4333 157.606 47.95 157.706 46.45H155.756C154.756 46.45 154.073 46.2667 153.706 45.9C153.373 45.5333 153.206 44.95 153.206 44.15C153.206 42.2833 153.956 41.35 155.456 41.35H158.306C158.873 37.6833 159.74 34.3333 160.906 31.3C162.073 28.2667 163.473 25.85 165.106 24.05C166.773 22.25 168.556 21.35 170.456 21.35C171.856 21.35 172.956 21.9667 173.756 23.2C174.556 24.4333 174.956 25.9833 174.956 27.85C174.956 33.0167 172.79 37.5167 168.456 41.35H174.056C174.59 41.35 174.973 41.4667 175.206 41.7C175.44 41.9333 175.556 42.3667 175.556 43C175.556 45.3 173.673 46.45 169.906 46.45H163.806C163.74 48.1167 163.706 49.4167 163.706 50.35C163.706 53.8167 164.106 56.25 164.906 57.65C165.74 59.05 167.04 59.75 168.806 59.75C170.24 59.75 171.506 59.3167 172.606 58.45C173.706 57.5833 175.006 56.2833 176.506 54.55C176.906 54.0833 177.356 53.85 177.856 53.85ZM169.106 26.15C168.606 26.15 168.04 26.7833 167.406 28.05C166.806 29.2833 166.223 31.0167 165.656 33.25C165.123 35.45 164.673 37.9 164.306 40.6C166.273 38.9 167.74 37 168.706 34.9C169.706 32.7667 170.206 30.8333 170.206 29.1C170.206 27.1333 169.84 26.15 169.106 26.15ZM181.335 65.25C179.268 65.25 177.618 64.5 176.385 63C175.152 61.5 174.535 59.5333 174.535 57.1C174.535 54.4333 175.152 51.9167 176.385 49.55C177.618 47.15 179.252 45.2333 181.285 43.8C183.352 42.3333 185.535 41.6 187.835 41.6C188.568 41.6 189.052 41.75 189.285 42.05C189.552 42.3167 189.768 42.8167 189.935 43.55C190.635 43.4167 191.368 43.35 192.135 43.35C193.768 43.35 194.585 43.9333 194.585 45.1C194.585 45.8 194.335 47.4667 193.835 50.1C193.068 53.9333 192.685 56.6 192.685 58.1C192.685 58.6 192.802 59 193.035 59.3C193.302 59.6 193.635 59.75 194.035 59.75C194.668 59.75 195.435 59.35 196.335 58.55C197.235 57.7167 198.452 56.3833 199.985 54.55C200.385 54.0833 200.835 53.85 201.335 53.85C201.768 53.85 202.102 54.05 202.335 54.45C202.602 54.85 202.735 55.4 202.735 56.1C202.735 57.4333 202.418 58.4667 201.785 59.2C200.418 60.9 198.968 62.3333 197.435 63.5C195.902 64.6667 194.418 65.25 192.985 65.25C191.885 65.25 190.868 64.8833 189.935 64.15C189.035 63.3833 188.352 62.35 187.885 61.05C186.152 63.85 183.968 65.25 181.335 65.25ZM183.135 60.2C183.868 60.2 184.568 59.7667 185.235 58.9C185.902 58.0333 186.385 56.8833 186.685 55.45L188.535 46.25C187.135 46.2833 185.835 46.8167 184.635 47.85C183.468 48.85 182.535 50.1833 181.835 51.85C181.135 53.5167 180.785 55.2833 180.785 57.15C180.785 58.1833 180.985 58.95 181.385 59.45C181.818 59.95 182.402 60.2 183.135 60.2ZM226.421 53.85C226.855 53.85 227.188 54.05 227.421 54.45C227.688 54.85 227.821 55.4 227.821 56.1C227.821 57.4333 227.505 58.4667 226.871 59.2C225.338 60.9667 223.755 62.4167 222.121 63.55C220.521 64.6833 218.688 65.25 216.621 65.25C214.921 65.25 213.638 64.7667 212.771 63.8C211.905 62.8 211.471 61.3667 211.471 59.5C211.471 58.5667 211.705 56.9 212.171 54.5C212.605 52.4 212.821 50.95 212.821 50.15C212.821 49.6167 212.638 49.35 212.271 49.35C211.838 49.35 211.221 49.9167 210.421 51.05C209.621 52.15 208.821 53.6167 208.021 55.45C207.221 57.2833 206.571 59.2167 206.071 61.25C205.438 63.9167 203.871 65.25 201.371 65.25C200.371 65.25 199.705 64.9 199.371 64.2C199.071 63.4667 198.921 62.1667 198.921 60.3C198.921 59.2333 198.938 58.3833 198.971 57.75L199.021 53.75C199.021 48.6167 199.538 43.2667 200.571 37.7C201.638 32.1333 203.188 27.4667 205.221 23.7C207.288 19.9 209.755 18 212.621 18C214.155 18 215.388 18.6667 216.321 20C217.288 21.3 217.771 23 217.771 25.1C217.771 28.4667 216.788 31.9667 214.821 35.6C212.855 39.2 209.655 43.4167 205.221 48.25C205.121 49.9833 205.071 51.7667 205.071 53.6C206.171 50.7667 207.388 48.4667 208.721 46.7C210.088 44.9 211.421 43.6167 212.721 42.85C214.055 42.0833 215.271 41.7 216.371 41.7C218.538 41.7 219.621 42.7833 219.621 44.95C219.621 46.25 219.255 48.6 218.521 52C217.888 54.9 217.571 56.8167 217.571 57.75C217.571 59.0833 218.055 59.75 219.021 59.75C219.688 59.75 220.471 59.35 221.371 58.55C222.305 57.7167 223.538 56.3833 225.071 54.55C225.471 54.0833 225.921 53.85 226.421 53.85ZM211.571 22.95C210.971 22.95 210.305 23.8167 209.571 25.55C208.838 27.25 208.121 29.5667 207.421 32.5C206.755 35.4 206.205 38.5667 205.771 42C207.838 39.5667 209.538 36.9167 210.871 34.05C212.238 31.1833 212.921 28.5833 212.921 26.25C212.921 25.1833 212.805 24.3667 212.571 23.8C212.338 23.2333 212.005 22.95 211.571 22.95ZM249.269 49.65C249.702 49.65 250.036 49.8667 250.269 50.3C250.502 50.7333 250.619 51.2833 250.619 51.95C250.619 53.55 250.136 54.5 249.169 54.8C247.169 55.5 244.969 55.9 242.569 56C241.936 58.8 240.686 61.05 238.819 62.75C236.952 64.4167 234.836 65.25 232.469 65.25C230.469 65.25 228.752 64.7667 227.319 63.8C225.919 62.8333 224.852 61.55 224.119 59.95C223.386 58.35 223.019 56.6167 223.019 54.75C223.019 52.2167 223.502 49.9667 224.469 48C225.436 46 226.769 44.45 228.469 43.35C230.169 42.2167 232.052 41.65 234.119 41.65C236.652 41.65 238.686 42.5333 240.219 44.3C241.786 46.0333 242.702 48.1833 242.969 50.75C244.536 50.65 246.402 50.3167 248.569 49.75C248.836 49.6833 249.069 49.65 249.269 49.65ZM232.869 59.95C233.936 59.95 234.852 59.5167 235.619 58.65C236.419 57.7833 236.952 56.5333 237.219 54.9C236.186 54.2 235.386 53.2833 234.819 52.15C234.286 51.0167 234.019 49.8167 234.019 48.55C234.019 48.0167 234.069 47.4833 234.169 46.95H233.919C232.586 46.95 231.469 47.6 230.569 48.9C229.702 50.1667 229.269 51.9667 229.269 54.3C229.269 56.1333 229.619 57.5333 230.319 58.5C231.052 59.4667 231.902 59.95 232.869 59.95ZM249.878 65.25C248.611 65.25 247.711 64.5833 247.178 63.25C246.678 61.9167 246.428 59.7833 246.428 56.85C246.428 52.5167 247.044 48.4 248.278 44.5C248.578 43.5333 249.061 42.8333 249.728 42.4C250.428 41.9333 251.394 41.7 252.628 41.7C253.294 41.7 253.761 41.7833 254.028 41.95C254.294 42.1167 254.428 42.4333 254.428 42.9C254.428 43.4333 254.178 44.6333 253.678 46.5C253.344 47.8333 253.078 49 252.878 50C252.678 50.9667 252.511 52.1833 252.378 53.65C253.278 51.05 254.344 48.85 255.578 47.05C256.844 45.25 258.128 43.9167 259.428 43.05C260.761 42.15 262.011 41.7 263.178 41.7C264.344 41.7 265.161 41.9667 265.628 42.5C266.128 43.0333 266.378 43.85 266.378 44.95C266.378 46.0167 266.061 47.95 265.428 50.75C265.161 51.95 264.978 52.85 264.878 53.45C266.544 49.35 268.394 46.3667 270.428 44.5C272.461 42.6333 274.361 41.7 276.128 41.7C278.294 41.7 279.378 42.7833 279.378 44.95C279.378 46.25 279.011 48.6 278.278 52C277.644 54.9 277.328 56.8167 277.328 57.75C277.328 59.0833 277.811 59.75 278.778 59.75C279.444 59.75 280.228 59.35 281.128 58.55C282.061 57.7167 283.294 56.3833 284.828 54.55C285.228 54.0833 285.678 53.85 286.178 53.85C286.611 53.85 286.944 54.05 287.178 54.45C287.444 54.85 287.578 55.4 287.578 56.1C287.578 57.4333 287.261 58.4667 286.628 59.2C285.194 60.9667 283.644 62.4167 281.978 63.55C280.344 64.6833 278.478 65.25 276.378 65.25C274.678 65.25 273.394 64.7667 272.528 63.8C271.661 62.8 271.228 61.3667 271.228 59.5C271.228 58.5667 271.461 56.9 271.928 54.5C272.361 52.4 272.578 50.95 272.578 50.15C272.578 49.6167 272.394 49.35 272.028 49.35C271.594 49.35 270.978 49.9167 270.178 51.05C269.378 52.15 268.578 53.6167 267.778 55.45C266.978 57.2833 266.328 59.2167 265.828 61.25C265.461 62.85 265.028 63.9167 264.528 64.45C264.061 64.9833 263.294 65.25 262.228 65.25C261.128 65.25 260.294 64.7333 259.728 63.7C259.194 62.6333 258.928 61.35 258.928 59.85C258.928 58.5833 259.094 56.75 259.428 54.35C259.694 52.2167 259.828 50.8167 259.828 50.15C259.828 49.6167 259.644 49.35 259.278 49.35C258.778 49.35 258.144 49.95 257.378 51.15C256.611 52.35 255.861 53.8833 255.128 55.75C254.428 57.6167 253.861 59.45 253.428 61.25C253.061 62.8167 252.628 63.8833 252.128 64.45C251.661 64.9833 250.911 65.25 249.878 65.25ZM301.435 55.35C301.868 55.35 302.201 55.55 302.435 55.95C302.701 56.35 302.835 56.9 302.835 57.6C302.835 58.8 302.551 59.8333 301.985 60.7C301.051 62.1333 299.818 63.25 298.285 64.05C296.785 64.85 294.985 65.25 292.885 65.25C289.685 65.25 287.201 64.3 285.435 62.4C283.668 60.4667 282.785 57.8667 282.785 54.6C282.785 52.3 283.268 50.1667 284.235 48.2C285.201 46.2 286.535 44.6167 288.235 43.45C289.968 42.2833 291.918 41.7 294.085 41.7C296.018 41.7 297.568 42.2833 298.735 43.45C299.901 44.5833 300.485 46.1333 300.485 48.1C300.485 50.4 299.651 52.3833 297.985 54.05C296.351 55.6833 293.551 56.9833 289.585 57.95C290.385 59.4833 291.735 60.25 293.635 60.25C295.001 60.25 296.118 59.9333 296.985 59.3C297.885 58.6667 298.918 57.6 300.085 56.1C300.485 55.6 300.935 55.35 301.435 55.35ZM293.235 46.6C292.001 46.6 290.951 47.3167 290.085 48.75C289.251 50.1833 288.835 51.9167 288.835 53.95V54.05C290.801 53.5833 292.351 52.8833 293.485 51.95C294.618 51.0167 295.185 49.9333 295.185 48.7C295.185 48.0667 295.001 47.5667 294.635 47.2C294.301 46.8 293.835 46.6 293.235 46.6Z" fill="white"/>
<defs>
<clipPath id="clip0_5_6">
<rect width="80" height="80" fill="white" transform="translate(0 4)"/>
</clipPath>
</defs>
</svg>
