<svg width="25" height="26" viewBox="0 0 25 26" fill="none" xmlns="http://www.w3.org/2000/svg">
<path d="M1.60227 0.364342C0.074084 1.14096 0.0991362 0.91549 0.0239795 12.2141C-0.0511773 23.3623 -0.026125 23.6629 1.27659 24.5398C2.15342 25.116 22.1451 25.2412 23.3476 24.665C24.9259 23.9135 24.9009 24.189 24.976 12.8153C25.0512 1.66706 25.0261 1.36643 23.7234 0.489603C22.8466 -0.086599 2.70457 -0.186808 1.60227 0.364342ZM7.36429 4.29755C7.91544 4.9489 8.01565 5.27458 7.89039 5.97605C7.63986 7.57939 6.03652 8.45622 4.65865 7.70465C3.80687 7.25371 3.50624 6.72761 3.48119 5.67542C3.48119 3.57103 5.98641 2.66915 7.36429 4.29755ZM19.2641 9.55852C20.0157 9.9343 20.5919 10.4855 20.9426 11.1368C21.4687 12.0637 21.5188 12.4395 21.5188 16.8237V21.5335H19.6399H17.761V17.9009C17.761 15.7464 17.6357 14.0429 17.4854 13.6671C16.9092 12.4145 14.8299 12.3143 14.0532 13.4667C13.7025 13.9928 13.6023 14.8696 13.5522 17.8258L13.452 21.5335H11.5981H9.74425V15.521V9.50841H11.6232C13.5021 9.50841 13.5021 9.50841 13.5021 10.1848V10.8362L14.0783 10.3101C15.5063 8.95726 17.5104 8.68169 19.2641 9.55852ZM7.74007 15.521V21.5335H5.73589H3.73171V15.521V9.50841H5.73589H7.74007V15.521Z" fill="#F5F5F5"/>
</svg>
